<svg width="25.4mm" height="12.7mm" version="1.1" viewBox="0 0 25.4 12.7" xmlns="http://www.w3.org/2000/svg">
 <g transform="translate(0 -284.3)">
  <g transform="translate(-1126.1 757.77)">
   <path d="m1145.9-469.23v4.2333h-10.187v-4.2333zm-13.097 0v4.2333h-1.7192v-4.2333z" style="fill:var(--svg-innercolor);"/>
   <path transform="matrix(.26458 0 0 .26458 1126.1 -473.47)" d="m28.504 9.5v29.004h4.9961v-29.004h-4.9961zm-12.504 3.5v22h9.498v-2.0039h-6.4961c-0.55219 0.002192-1.0039-0.44379-1.0039-0.99609v-15.996c-0.00189-0.5554 0.44832-1.0039 1.0039-1.0039h6.4961v-2h-9.498zm20.498 0v2h38.504c0.55219 0.002306 0.99609 0.45172 0.99609 1.0039v15.996c-0.002268 0.54916-0.44693 0.99609-0.99609 0.99609h-38.504v2.0039h41.502v-22h-41.502z" style="fill:var(--svg-outercolor);"/>
  </g>
 </g>
</svg>
