<svg width="50.8mm" height="50.8mm" version="1.1" viewBox="0 0 50.8 50.8" xmlns="http://www.w3.org/2000/svg">
 <g transform="translate(0,-246.2)">
  <path d="m25.526 250.97a2.6461 2.6461 0 0 0-0.26562 0 2.6461 2.6461 0 0 0-2.1523 1.3204l-20.164 34.924a2.6461 2.6461 0 0 0 2.2913 3.9688h40.328a2.6461 2.6461 0 0 0 2.2913-3.9688l-20.162-34.924a2.6461 2.6461 0 0 0-2.1663-1.3208zm-2.2381 9.5503h4.669l-3.3342 9.3462 5.7743-1.1782-4.5392 11.546 4.1217-0.28112-7.7344 7.1603-2.743-6.4461 2.9538-0.20156 2.4112-8.0135-4.8178 0.92605z" style="fill:var(--svg-fgcolor)"/>
 </g>
</svg>
