<svg width="50.8mm" height="50.8mm" version="1.1" viewBox="0 0 50.8 50.8" xmlns="http://www.w3.org/2000/svg">
 <g transform="translate(0,-246.2)">
  <path d="m25.525 250.97a2.6461 2.6461 0 0 0-0.26511 0 2.6461 2.6461 0 0 0-2.1502 1.3204l-20.164 34.924a2.6461 2.6461 0 0 0 2.2908 3.9688h40.328a2.6461 2.6461 0 0 0 2.2908-3.9688l-20.164-34.924a2.6461 2.6461 0 0 0-2.1663-1.3208zm-0.16536 8.4264a2.6461 2.6461 0 0 1 2.6851 2.6836v12.699a2.6461 2.6461 0 1 1-5.2906 0v-12.699a2.6461 2.6461 0 0 1 2.6055-2.6836zm0 21.168a2.6461 2.6461 0 0 1 2.6851 2.682v0.26564a2.6461 2.6461 0 1 1-5.2906 0v-0.26564a2.6461 2.6461 0 0 1 2.6055-2.682z" style="fill:var(--svg-fgcolor)"/>
 </g>
</svg>
